<?xml version="1.0" standalone="no"?>
<!DOCTYPE svg PUBLIC "-//W3C//DTD SVG 1.1//EN" "http://www.w3.org/Graphics/SVG/1.1/DTD/svg11.dtd" >
<svg xmlns="http://www.w3.org/2000/svg" xmlns:xlink="http://www.w3.org/1999/xlink" version="1.1">
<metadata></metadata>
<defs>
<font id="carreregular" horiz-adv-x="646" >
<font-face units-per-em="1000" ascent="800" descent="-200" />
<missing-glyph horiz-adv-x="500" />
<glyph unicode="0" horiz-adv-x="603" d="M533 596v-515q0 -34 -24 -57.5t-57 -23.5h-306q-33 0 -57 23.5t-24 57.5v515q0 33 24 56.5t57 23.5h306q33 0 57 -23.5t24 -56.5zM355 548h-112q-20 0 -34.5 -14.5t-14.5 -34.5v-322q0 -20 14.5 -34t34.5 -14h112q20 0 34.5 14t14.5 34v322q0 20 -14.5 34.5t-34.5 14.5z " />
<glyph unicode="1" horiz-adv-x="300" d="M227 676v-676h-121v556h-40v120h161z" />
<glyph unicode="2" horiz-adv-x="609" d="M196 158q-11 -5 -7 -18q4 -11 16 -11h330v-129h-467v185q0 44 37 68l279 180q22 14 22 41v25q0 20 -14 34.5t-34 14.5h-127q-20 0 -34 -14.5t-14 -34.5v-40h-115v137q0 33 23.5 56.5t56.5 23.5h306q34 0 57.5 -23.5t23.5 -56.5v-175q0 -44 -37 -67z" />
<glyph unicode="3" horiz-adv-x="620" d="M499 331q21 -10 34 -30t13 -43v-177q0 -34 -24 -57.5t-57 -23.5h-306q-33 0 -57 23.5t-24 57.5v128h121v-32q0 -20 14.5 -34t34.5 -14h120q20 0 34.5 14t14.5 34v48q0 20 -14.5 34.5t-34.5 14.5h-164v129h164q20 0 34.5 14t14.5 34v48q0 20 -14.5 34.5t-34.5 14.5h-120 q-20 0 -34.5 -14.5t-14.5 -34.5v-32h-121v129q0 33 24 56.5t57 23.5h306q33 0 57 -23.5t24 -56.5v-177q0 -51 -47 -73q-5 -3 -5 -8t5 -7z" />
<glyph unicode="4" horiz-adv-x="598" d="M62 321l227 355h160v-418h81v-129h-81v-129h-129v129h-258v192zM320 258v210l-135 -210h135z" />
<glyph unicode="5" horiz-adv-x="616" d="M176 287l-110 29v360h468v-128h-339v-108l9 -2q20 14 45 14h204q33 0 57 -23.5t24 -56.5v-291q0 -34 -24 -57.5t-57 -23.5h-306q-33 0 -57 23.5t-24 57.5v108h129v-12q0 -20 14.5 -34t34.5 -14h112q20 0 34.5 14t14.5 34v98q0 20 -14.5 34t-34.5 14h-86q-53 0 -94 -36z " />
<glyph unicode="6" d="M550 475h-129v24q0 20 -14.5 34.5t-34.5 14.5h-112q-20 0 -35 -15q-14 -14 -14 -34v-98h258q34 0 57 -23q24 -24 24 -57v-240q0 -34 -24 -57.5t-57 -23.5h-306q-33 0 -57 23.5t-24 57.5v515q0 33 24 56.5t57 23.5h306q33 0 57 -23.5t24 -56.5v-121zM372 129q20 0 34.5 14 t14.5 34v47q0 20 -14 34q-16 14 -35 14h-112q-20 0 -34.5 -14t-14.5 -34v-47q0 -20 14 -34q16 -14 35 -14h112z" />
<glyph unicode="7" horiz-adv-x="607" d="M69 548v128h467v-128l-260 -548h-143l260 548h-324z" />
<glyph unicode="8" horiz-adv-x="618" d="M361 548h-112q-20 0 -34.5 -14.5t-14.5 -34.5v-47q0 -20 14 -34q16 -14 35 -14h112q20 0 34.5 14t14.5 34v47q0 20 -14 34q-15 15 -35 15zM410 177v50q0 20 -14.5 34t-34.5 14h-112q-19 0 -35 -14q-14 -14 -14 -34v-50q0 -20 14.5 -34t34.5 -14h112q20 0 34.5 14t14.5 34 zM71 419v177q0 33 24 56.5t57 23.5h306q33 0 57 -23.5t24 -56.5v-177q0 -51 -47 -73q-5 -3 -5 -8t5 -7q21 -10 34 -30t13 -43v-177q0 -34 -24 -57.5t-57 -23.5h-306q-33 0 -57 23.5t-24 57.5v177q0 23 13 43t34 30q5 2 5 7t-5 8q-47 22 -47 73z" />
<glyph unicode="9" horiz-adv-x="639" d="M259 548q-20 0 -34.5 -14.5t-14.5 -34.5v-47q0 -20 14 -34q16 -14 35 -14h112q20 0 34.5 14t14.5 34v47q0 20 -14 34q-15 15 -35 15h-112zM420 275h-258q-33 0 -57 24t-24 57v240q0 33 24 56.5t57 23.5h306q33 0 57 -23.5t24 -56.5v-515q0 -34 -24 -57.5t-57 -23.5h-306 q-33 0 -57 23.5t-24 57.5v121h129v-25q0 -20 14.5 -34t34.5 -14h112q19 0 35 14q14 14 14 34v98z" />
<glyph unicode="A" horiz-adv-x="302" d="M220 676v-676h-121v556h-40v120h161z" />
<glyph unicode="B" d="M205 129h352v-129h-467v229l338 219v100h-223v-89h-115v217h467v-299l-352 -227v-21z" />
<glyph unicode="C" d="M82 467v209h467v-676h-467v209h121v-80h217v145h-212v129h212v145h-217v-81h-121z" />
<glyph unicode="D" horiz-adv-x="616" d="M69 321l227 355h160v-418h81v-129h-81v-129h-129v129h-258v192zM327 258v210l-135 -210h135z" />
<glyph unicode="E" horiz-adv-x="631" d="M538 452v-452h-467v189h129v-60h209v194h-219l-9 -36l-110 29v360h467v-128h-338v-108l8 -2l45 14h285z" />
<glyph unicode="F" d="M574 475h-129v73h-209v-147h338v-401h-467v676h467v-201zM445 129v143h-209v-143h209z" />
<glyph unicode="G" d="M97 548v128h467v-128l-260 -548h-143l260 548h-324z" />
<glyph unicode="H" d="M556 0h-467v676h467v-676zM218 548v-144h209v144h-209zM427 275h-209v-146h209v146z" />
<glyph unicode="I" d="M438 275h-338v401h467v-676h-467v202h129v-73h209v146zM229 548v-144h209v144h-209z" />
<glyph unicode="J" d="M556 0h-467v676h467v-676zM427 548h-209v-419h209v419z" />
<glyph unicode="&#x25fc;" horiz-adv-x="500" d="M0 0z" />
<glyph unicode="&#xf020;" horiz-adv-x="500" />
</font>
</defs>
</svg>
